<svg width="25" height="24" viewBox="0 0 25 24" fill="none" xmlns="http://www.w3.org/2000/svg">
<path d="M3.99817 5.00018V19.0002C3.99817 19.5306 4.20888 20.0393 4.58396 20.4144C4.95903 20.7895 5.46774 21.0002 5.99817 21.0002H19.9982C20.5286 21.0002 21.0373 20.7895 21.4124 20.4144C21.7875 20.0393 21.9982 19.5306 21.9982 19.0002V5.00018C21.9982 4.46975 21.7875 3.96104 21.4124 3.58597C21.0373 3.2109 20.5286 3.00018 19.9982 3.00018H5.99817C5.46774 3.00018 4.95903 3.2109 4.58396 3.58597C4.20888 3.96104 3.99817 4.46975 3.99817 5.00018ZM10.9982 7.00018H18.9982V9.00018H10.9982V7.00018ZM10.9982 11.0002H18.9982V13.0002H10.9982V11.0002ZM10.9982 15.0002H18.9982V17.0002H10.9982V15.0002ZM6.99817 7.00018H8.99817V9.00018H6.99817V7.00018ZM6.99817 11.0002H8.99817V13.0002H6.99817V11.0002ZM6.99817 15.0002H8.99817V17.0002H6.99817V15.0002Z" fill="#808080"/>
</svg>
