<svg width="25" height="24" viewBox="0 0 25 24" fill="none" xmlns="http://www.w3.org/2000/svg">
<path d="M20.9982 4.00018H4.99817C3.89517 4.00018 2.99817 4.89718 2.99817 6.00018V18.0002C2.99817 19.1032 3.89517 20.0002 4.99817 20.0002H20.9982C22.1012 20.0002 22.9982 19.1032 22.9982 18.0002V6.00018C22.9982 4.89718 22.1012 4.00018 20.9982 4.00018ZM9.71317 8.00018C10.8642 8.00018 11.7132 8.84918 11.7132 10.0002C11.7132 11.1512 10.8642 12.0002 9.71317 12.0002C8.56217 12.0002 7.71317 11.1512 7.71317 10.0002C7.71317 8.84918 8.56117 8.00018 9.71317 8.00018ZM13.4282 16.0002H5.99817V15.5352C5.99817 14.1622 7.67417 12.7502 9.71317 12.7502C11.7522 12.7502 13.4282 14.1622 13.4282 15.5352V16.0002ZM19.9982 15.0002H15.9982V13.0002H19.9982V15.0002ZM19.9982 11.0002H14.9982V9.00018H19.9982V11.0002Z" fill="#808080"/>
</svg>
