<svg width="25" height="24" viewBox="0 0 25 24" fill="none" xmlns="http://www.w3.org/2000/svg">
<path d="M12.9973 8.25024C12.2556 8.25024 11.5306 8.47018 10.9139 8.88223C10.2972 9.29429 9.81654 9.87996 9.53271 10.5652C9.24888 11.2504 9.17462 12.0044 9.31931 12.7318C9.46401 13.4593 9.82116 14.1274 10.3456 14.6519C10.8701 15.1763 11.5382 15.5335 12.2657 15.6782C12.9931 15.8229 13.7471 15.7486 14.4323 15.4648C15.1175 15.181 15.7032 14.7003 16.1153 14.0836C16.5273 13.4669 16.7473 12.7419 16.7473 12.0002C16.7443 11.0066 16.3483 10.0545 15.6456 9.35187C14.943 8.64925 13.9909 8.25321 12.9973 8.25024ZM21.0935 12.0002C21.0916 12.3506 21.0659 12.7005 21.0166 13.0474L23.299 14.8343C23.3984 14.9164 23.4654 15.0311 23.4879 15.1581C23.5105 15.285 23.4872 15.4158 23.4223 15.5271L21.2632 19.2546C21.1976 19.365 21.0951 19.4486 20.9739 19.4909C20.8527 19.5332 20.7204 19.5313 20.6004 19.4857L17.9168 18.4076C17.358 18.8379 16.7465 19.195 16.0971 19.4702L15.6959 22.3193C15.6734 22.4469 15.6073 22.5628 15.5089 22.6471C15.4105 22.7314 15.2859 22.7789 15.1563 22.7815H10.8382C10.711 22.779 10.5884 22.7335 10.4904 22.6524C10.3924 22.5712 10.3248 22.4593 10.2987 22.3348L9.89742 19.4857C9.24626 19.2137 8.6343 18.856 8.07773 18.4221L5.39413 19.5002C5.27417 19.5459 5.14196 19.5478 5.02073 19.5056C4.8995 19.4634 4.79703 19.3799 4.73132 19.2696L2.57226 15.5426C2.50727 15.4313 2.48399 15.3004 2.50657 15.1735C2.52916 15.0466 2.59614 14.9319 2.69554 14.8498L4.97788 13.0629C4.9292 12.7107 4.90352 12.3558 4.90101 12.0002C4.90296 11.6498 4.92864 11.3 4.97788 10.9531L2.69554 9.16618C2.59614 9.0841 2.52916 8.96935 2.50657 8.84243C2.48399 8.71551 2.50727 8.5847 2.57226 8.47337L4.73132 4.74587C4.79696 4.63552 4.8994 4.55186 5.02063 4.50959C5.14187 4.46732 5.27412 4.46916 5.39413 4.51478L8.07773 5.5929C8.63653 5.16259 9.24805 4.80548 9.89742 4.53024L10.2987 1.68118C10.3211 1.55356 10.3872 1.43771 10.4856 1.35341C10.584 1.26911 10.7086 1.2216 10.8382 1.21899H15.1563C15.2835 1.22147 15.4061 1.26699 15.5041 1.34812C15.6021 1.42926 15.6697 1.54121 15.6959 1.66571L16.0971 4.51478C16.7491 4.78664 17.3618 5.14433 17.9191 5.57837L20.6004 4.50024C20.7203 4.45458 20.8526 4.45268 20.9738 4.49486C21.095 4.53704 21.1975 4.62061 21.2632 4.73087L23.4223 8.45837C23.4872 8.5697 23.5105 8.70051 23.4879 8.82743C23.4654 8.95435 23.3984 9.0691 23.299 9.15118L21.0166 10.9381C21.0653 11.2901 21.091 11.6449 21.0935 12.0002Z" fill="#808080"/>
</svg>
