<svg width="25" height="24" viewBox="0 0 25 24" fill="none" xmlns="http://www.w3.org/2000/svg">
<path d="M21.9982 3.00018H14.9982C14.2578 3.00269 13.5448 3.28075 12.9982 3.78018C12.4516 3.28075 11.7386 3.00269 10.9982 3.00018H3.99817C3.73295 3.00018 3.4786 3.10554 3.29106 3.29308C3.10353 3.48061 2.99817 3.73497 2.99817 4.00018V19.0002C2.99817 19.2654 3.10353 19.5198 3.29106 19.7073C3.4786 19.8948 3.73295 20.0002 3.99817 20.0002H9.75617C10.2863 20.0014 10.7946 20.212 11.1702 20.5862L12.2912 21.7072C12.3002 21.7162 12.3122 21.7192 12.3212 21.7282C12.4072 21.8082 12.5032 21.8782 12.6152 21.9242H12.6172C12.8611 22.0252 13.1352 22.0252 13.3792 21.9242H13.3812C13.4932 21.8782 13.5892 21.8072 13.6752 21.7282C13.6842 21.7192 13.6962 21.7162 13.7052 21.7072L14.8262 20.5862C15.2018 20.212 15.71 20.0014 16.2402 20.0002H21.9982C22.2634 20.0002 22.5177 19.8948 22.7053 19.7073C22.8928 19.5198 22.9982 19.2654 22.9982 19.0002V4.00018C22.9982 3.73497 22.8928 3.48061 22.7053 3.29308C22.5177 3.10554 22.2634 3.00018 21.9982 3.00018ZM20.9982 18.0002H16.2402C15.4411 18.0025 14.6607 18.2423 13.9982 18.6892V6.00018C13.9982 5.44918 14.4462 5.00018 14.9982 5.00018H20.9982V18.0002Z" fill="white"/>
</svg>
