<svg width="25" height="24" viewBox="0 0 25 24" fill="none" xmlns="http://www.w3.org/2000/svg">
<path d="M19.9862 2.01221L22.9862 5.01221L20.6992 7.30021L17.6992 4.30021L19.9862 2.01221ZM8.99817 16.0002H11.9982L19.2852 8.71321L16.2852 5.71321L8.99817 13.0002V16.0002Z" fill="#808080"/>
<path d="M19.9982 19.0002H9.15617C9.13017 19.0002 9.10317 19.0102 9.07717 19.0102C9.04417 19.0102 9.01117 19.0012 8.97717 19.0002H5.99817V5.00024H12.8452L14.8452 3.00024H5.99817C4.89517 3.00024 3.99817 3.89624 3.99817 5.00024V19.0002C3.99817 20.1042 4.89517 21.0002 5.99817 21.0002H19.9982C20.5286 21.0002 21.0373 20.7895 21.4124 20.4145C21.7875 20.0394 21.9982 19.5307 21.9982 19.0002V10.3322L19.9982 12.3322V19.0002Z" fill="#808080"/>
</svg>
